{"title":"The.Men.Who Stare.At.Goats.R5.LINE.XVID-IMAGiNE","uid":5280268,"size":1490340300,"categoryP":"video","categoryS":"movies","magnet":"?xt=urn:btih:d048f1c7e3df3f0382774efd9bb4592022d0fbea&amp;dn=The.Men.Who+Stare.At.Goats.R5.LINE.XVID-IMAGiNE&amp;tr=udp%3A%2F%2Ftracker.openbittorrent.com%3A80&amp;tr=udp%3A%2F%2Fopen.demonii.com%3A1337&amp;tr=udp%3A%2F%2Ftracker.coppersurfer.tk%3A6969&amp;tr=udp%3A%2F%2Fexodus.desync.com%3A6969","seeders":0,"leechers":1,"uploader":"raymondhome","files":-1,"time":1263521335,"description":"Love for All and Sharing is the first step to solving all the problems of humanity.\n\nWebsites I want to share.\n\n    &lt;a href=&quot;\nhttp://www.shareintl.org/&quot; rel=&quot;nofollow&quot; target=&quot;_NEW&quot;&gt;\nhttp://www.shareintl.org/&lt;/a&gt;\n\n    &lt;a href=&quot;\nhttp://www.lightmiddleway.com&quot; rel=&quot;nofollow&quot; target=&quot;_NEW&quot;&gt;\nhttp://www.lightmiddleway.com&lt;/a&gt;\n\n\nThank you very much\n\nNo credit for me...credit to EVERYONE for sharing\n &lt;a href=&quot;\nhttp://thepiratebay.se/user/raymondhome/&quot; rel=&quot;nofollow&quot; target=&quot;_NEW&quot;&gt;\nhttp://thepiratebay.se/user/raymondhome/&lt;/a&gt;\n\nRipper ...........: IMAGiNE                            \nVideo Codec.......:XVID\nRelease Date......:01/13/10\nAudio Codec.......:MPEG Audio\nAudio Bitrate.....:160                                           Runtime...........:1h 29mn\nResolution........:720 x 400\n\nFormat                           : AVI\nFormat/Info                      : Audio Video Interleave\nFile size                        : 1.39 GiB\nDuration                         : 1h 29mn\nOverall bit rate                 : 2 218 Kbps\nWriting library                  : VirtualDub build 30091/release\n\nVideo\nID                               : 0\nFormat                           : MPEG-4 Visual\nFormat profile                   : Advanced Simple@L5\nFormat settings, BVOP            : Yes\nFormat settings, QPel            : No\nFormat settings, GMC             : No warppoints\nFormat settings, Matrix          : Default (MPEG)\nMuxing mode                      : Packed bitstream\nCodec ID                         : XVID\nCodec ID/Hint                    : XviD\nDuration                         : 1h 29mn\nBit rate                         : 2 048 Kbps\nWidth                            : 720 pixels\nHeight                           : 400 pixels\nDisplay aspect ratio             : 16:9\nFrame rate                       : 25.000 fps\nResolution                       : 8 bits\nColorimetry                      : 4:2:0\nScan type                        : Progressive\nBits/(Pixel*Frame)               : 0.285\nStream size                      : 1.28 GiB (92%)\nWriting library                  : XviD 1.2.1 (UTC 2008-12-04)\n\nAudio\nID                               : 1\nFormat                           : MPEG Audio\nFormat version                   : Version 1\nFormat profile                   : Layer 3\nMode                             : Joint stereo\nCodec ID                         : 55\nCodec ID/Hint                    : MP3\nDuration                         : 1h 29mn\nBit rate mode                    : Constant\nBit rate                         : 160 Kbps\nChannel(s)                       : 2 channels\nSampling rate                    : 44.1 KHz\nStream size                      : 103 MiB (7%)\nAlignment                        : Split accross interleaves\nInterleave, duration             : 40 ms (1.00 video frame)\nInterleave, preload duration     : 500 ms\n\n***NOTES:***\n\nIMAGiNE bringing you another release.....\nThis time we bring you another R5 to enjoy.....\n\nHere we go again with the men who stare at goats r5...... For this we used the russian dvdr and our own audio(same most other releases have used). The video was dull and lacked colour and sharpness, so we tweaked the video the best we could. \n\n***The audio has been remastered and with a few other tweaks and sounds good.....\n\n********imho...so far this release is better than max, maxspeed, rx &amp; prism releases...please comment","torrent":{"xt":"urn:btih:d048f1c7e3df3f0382774efd9bb4592022d0fbea","amp;dn":"The.Men.Who+Stare.At.Goats.R5.LINE.XVID-IMAGiNE","amp;tr":["udp%3A%2F%2Ftracker.openbittorrent.com%3A80","udp%3A%2F%2Fopen.demonii.com%3A1337","udp%3A%2F%2Ftracker.coppersurfer.tk%3A6969","udp%3A%2F%2Fexodus.desync.com%3A6969"],"infoHash":"d048f1c7e3df3f0382774efd9bb4592022d0fbea","infoHashBuffer":{"type":"Buffer","data":[208,72,241,199,227,223,63,3,130,119,78,253,155,180,89,32,34,208,251,234]},"announce":[],"urlList":[]}}